<svg xmlns="http://www.w3.org/2000/svg" width="256" height="52" viewBox="0 0 256 52">
  <defs>
    <style>
      .cls-1 {
        fill: #3f3a64;
      }

      .cls-1, .cls-2 {
        fill-rule: evenodd;
      }

      .cls-2 {
        fill: #20ad96;
      }
    </style>
  </defs>
  <path id="virtualdars" class="cls-1" d="M87.3,36.451L82.8,23.433H77.522l7.067,18.6h5.468l7.067-18.6H91.843Zm15.863-16.125a2.821,2.821,0,0,0,.875-2.064,2.884,2.884,0,0,0-.875-2.083,2.834,2.834,0,0,0-2.1-.893A2.793,2.793,0,0,0,99,16.179a2.884,2.884,0,0,0-.874,2.083,2.986,2.986,0,0,0,2.939,2.939A2.862,2.862,0,0,0,103.168,20.327Zm0.317,21.7v-18.6h-4.8v18.6h4.8Zm7.885-18.6h-4.8v18.6h4.8v-8.89a4.262,4.262,0,0,1,1.73-3.831,5.654,5.654,0,0,1,3.924-.893V23.061a6.748,6.748,0,0,0-3.441.893,5.01,5.01,0,0,0-2.213,2.678v-3.2Zm19.453,0h-4.2V18.225l-4.8,1.451v3.757h-3.236v4.612h3.236v7.737q0,3.832,2.027,5.319t6.974,0.93V37.679a20.751,20.751,0,0,1-2.306.019,2.217,2.217,0,0,1-1.413-.5,1.837,1.837,0,0,1-.484-1.413V28.045h4.2V23.433Zm15.214,10.043a4.794,4.794,0,0,1-1.116,3.459,3.95,3.95,0,0,1-2.976,1.153,3.656,3.656,0,0,1-2.678-.986,3.807,3.807,0,0,1-1-2.846V23.433h-4.8V34.852a7.763,7.763,0,0,0,1.99,5.654,6.732,6.732,0,0,0,5.04,2.046,6.2,6.2,0,0,0,5.543-2.6v2.083h4.8v-18.6h-4.8V33.476Zm22.578-7.849a7.305,7.305,0,0,0-6.063-2.715,8.425,8.425,0,0,0-6.379,2.846,9.829,9.829,0,0,0-2.66,6.974,9.83,9.83,0,0,0,2.66,6.974,8.425,8.425,0,0,0,6.379,2.845,7.3,7.3,0,0,0,6.063-2.715v2.195h4.8v-18.6h-4.8v2.194Zm-10.3,7.1a5.147,5.147,0,0,1,1.451-3.775,4.957,4.957,0,0,1,3.682-1.469,5.021,5.021,0,0,1,3.7,1.469,5.113,5.113,0,0,1,1.469,3.775,5.112,5.112,0,0,1-1.469,3.775,5.019,5.019,0,0,1-3.7,1.469,4.954,4.954,0,0,1-3.682-1.469A5.146,5.146,0,0,1,158.311,32.732Zm23.508,9.3V14.877h-4.8V42.031h4.8Zm20.049-14.953a8.327,8.327,0,0,0-7.514-4.092,9.217,9.217,0,0,0-6.788,2.827,9.44,9.44,0,0,0-2.809,6.919,9.438,9.438,0,0,0,2.809,6.919,9.214,9.214,0,0,0,6.788,2.827,8.325,8.325,0,0,0,7.514-4.092v3.645h2.455V15.993h-2.455V27.078Zm-14.656,5.654a7.141,7.141,0,0,1,2.121-5.226,7.409,7.409,0,0,1,10.415,0,7.5,7.5,0,0,1,0,10.452,7.409,7.409,0,0,1-10.415,0A7.139,7.139,0,0,1,187.212,32.732Zm37.2-5.654a8.326,8.326,0,0,0-7.513-4.092,9.219,9.219,0,0,0-6.789,2.827,9.443,9.443,0,0,0-2.808,6.919,9.441,9.441,0,0,0,2.808,6.919,9.217,9.217,0,0,0,6.789,2.827,8.325,8.325,0,0,0,7.513-4.092v3.645h2.455v-18.6h-2.455v3.645Zm-14.655,5.654a7.144,7.144,0,0,1,2.12-5.226,7.409,7.409,0,0,1,10.415,0,7.5,7.5,0,0,1,0,10.452,7.409,7.409,0,0,1-10.415,0A7.142,7.142,0,0,1,209.753,32.732Zm23.471-9.3h-2.455v18.6h2.455V31.69A5.97,5.97,0,0,1,234.9,27a6.1,6.1,0,0,1,4.2-1.488V23.135a6.045,6.045,0,0,0-5.877,3.385V23.433Zm11.568,2.7a4.876,4.876,0,0,1,2.752-.762q3.384,0,4.464,2.6l2.045-1.19a6.275,6.275,0,0,0-2.529-2.771,7.612,7.612,0,0,0-3.98-1.023,6.816,6.816,0,0,0-4.557,1.525,4.771,4.771,0,0,0-1.8,3.794,4.265,4.265,0,0,0,1.116,3.069,6.276,6.276,0,0,0,2.716,1.674q1.6,0.5,3.2.911a8.816,8.816,0,0,1,2.715,1.153,2.3,2.3,0,0,1,1.116,2.009,2.43,2.43,0,0,1-1.228,2.25,5.908,5.908,0,0,1-3.05.725,6.006,6.006,0,0,1-3.217-.837,4.353,4.353,0,0,1-1.879-2.288L240.588,38.2a6.364,6.364,0,0,0,2.623,3.087,8.341,8.341,0,0,0,4.556,1.19,7.58,7.58,0,0,0,4.854-1.488,4.706,4.706,0,0,0,1.879-3.868,4.265,4.265,0,0,0-1.116-3.069,6.286,6.286,0,0,0-2.715-1.674q-1.6-.5-3.2-0.911a8.775,8.775,0,0,1-2.716-1.153,2.3,2.3,0,0,1-1.116-2.009A2.457,2.457,0,0,1,244.792,26.129Z"/>
  <path id="Ellipse_1_copy_2" data-name="Ellipse 1 copy 2" class="cls-2" d="M46.6,19.758C53.458,12.9,61.989,9.291,69.518,9.325c0.034,7.53-3.576,16.061-10.433,22.917S43.7,42.709,36.169,42.675C36.135,35.145,39.746,26.614,46.6,19.758Zm-22.187,0C17.559,12.9,9.028,9.291,1.5,9.325c-0.034,7.53,3.576,16.061,10.433,22.917S27.318,42.709,34.847,42.675C34.881,35.145,31.271,26.614,24.415,19.758Z"/>
  <path id="virtualdars-2" data-name="virtualdars" class="cls-1" d="M87.3,36.451L82.8,23.433H77.522l7.067,18.6h5.468l7.067-18.6H91.843Zm15.863-16.125a2.821,2.821,0,0,0,.875-2.064,2.884,2.884,0,0,0-.875-2.083,2.834,2.834,0,0,0-2.1-.893A2.793,2.793,0,0,0,99,16.179a2.884,2.884,0,0,0-.874,2.083,2.986,2.986,0,0,0,2.939,2.939A2.862,2.862,0,0,0,103.168,20.327Zm0.317,21.7v-18.6h-4.8v18.6h4.8Zm7.885-18.6h-4.8v18.6h4.8v-8.89a4.262,4.262,0,0,1,1.73-3.831,5.654,5.654,0,0,1,3.924-.893V23.061a6.748,6.748,0,0,0-3.441.893,5.01,5.01,0,0,0-2.213,2.678v-3.2Zm19.453,0h-4.2V18.225l-4.8,1.451v3.757h-3.236v4.612h3.236v7.737q0,3.832,2.027,5.319t6.974,0.93V37.679a20.751,20.751,0,0,1-2.306.019,2.217,2.217,0,0,1-1.413-.5,1.837,1.837,0,0,1-.484-1.413V28.045h4.2V23.433Zm15.214,10.043a4.794,4.794,0,0,1-1.116,3.459,3.95,3.95,0,0,1-2.976,1.153,3.656,3.656,0,0,1-2.678-.986,3.807,3.807,0,0,1-1-2.846V23.433h-4.8V34.852a7.763,7.763,0,0,0,1.99,5.654,6.732,6.732,0,0,0,5.04,2.046,6.2,6.2,0,0,0,5.543-2.6v2.083h4.8v-18.6h-4.8V33.476Zm22.578-7.849a7.305,7.305,0,0,0-6.063-2.715,8.425,8.425,0,0,0-6.379,2.846,9.829,9.829,0,0,0-2.66,6.974,9.83,9.83,0,0,0,2.66,6.974,8.425,8.425,0,0,0,6.379,2.845,7.3,7.3,0,0,0,6.063-2.715v2.195h4.8v-18.6h-4.8v2.194Zm-10.3,7.1a5.147,5.147,0,0,1,1.451-3.775,4.957,4.957,0,0,1,3.682-1.469,5.021,5.021,0,0,1,3.7,1.469,5.113,5.113,0,0,1,1.469,3.775,5.112,5.112,0,0,1-1.469,3.775,5.019,5.019,0,0,1-3.7,1.469,4.954,4.954,0,0,1-3.682-1.469A5.146,5.146,0,0,1,158.311,32.732Zm23.508,9.3V14.877h-4.8V42.031h4.8Zm20.049-14.953a8.327,8.327,0,0,0-7.514-4.092,9.217,9.217,0,0,0-6.788,2.827,9.44,9.44,0,0,0-2.809,6.919,9.438,9.438,0,0,0,2.809,6.919,9.214,9.214,0,0,0,6.788,2.827,8.325,8.325,0,0,0,7.514-4.092v3.645h2.455V15.993h-2.455V27.078Zm-14.656,5.654a7.141,7.141,0,0,1,2.121-5.226,7.409,7.409,0,0,1,10.415,0,7.5,7.5,0,0,1,0,10.452,7.409,7.409,0,0,1-10.415,0A7.139,7.139,0,0,1,187.212,32.732Zm37.2-5.654a8.326,8.326,0,0,0-7.513-4.092,9.219,9.219,0,0,0-6.789,2.827,9.443,9.443,0,0,0-2.808,6.919,9.441,9.441,0,0,0,2.808,6.919,9.217,9.217,0,0,0,6.789,2.827,8.325,8.325,0,0,0,7.513-4.092v3.645h2.455v-18.6h-2.455v3.645Zm-14.655,5.654a7.144,7.144,0,0,1,2.12-5.226,7.409,7.409,0,0,1,10.415,0,7.5,7.5,0,0,1,0,10.452,7.409,7.409,0,0,1-10.415,0A7.142,7.142,0,0,1,209.753,32.732Zm23.471-9.3h-2.455v18.6h2.455V31.69A5.97,5.97,0,0,1,234.9,27a6.1,6.1,0,0,1,4.2-1.488V23.135a6.045,6.045,0,0,0-5.877,3.385V23.433Zm11.568,2.7a4.876,4.876,0,0,1,2.752-.762q3.384,0,4.464,2.6l2.045-1.19a6.275,6.275,0,0,0-2.529-2.771,7.612,7.612,0,0,0-3.98-1.023,6.816,6.816,0,0,0-4.557,1.525,4.771,4.771,0,0,0-1.8,3.794,4.265,4.265,0,0,0,1.116,3.069,6.276,6.276,0,0,0,2.716,1.674q1.6,0.5,3.2.911a8.816,8.816,0,0,1,2.715,1.153,2.3,2.3,0,0,1,1.116,2.009,2.43,2.43,0,0,1-1.228,2.25,5.908,5.908,0,0,1-3.05.725,6.006,6.006,0,0,1-3.217-.837,4.353,4.353,0,0,1-1.879-2.288L240.588,38.2a6.364,6.364,0,0,0,2.623,3.087,8.341,8.341,0,0,0,4.556,1.19,7.58,7.58,0,0,0,4.854-1.488,4.706,4.706,0,0,0,1.879-3.868,4.265,4.265,0,0,0-1.116-3.069,6.286,6.286,0,0,0-2.715-1.674q-1.6-.5-3.2-0.911a8.775,8.775,0,0,1-2.716-1.153,2.3,2.3,0,0,1-1.116-2.009A2.457,2.457,0,0,1,244.792,26.129Z"/>
  <path id="Ellipse_1_copy_2-2" data-name="Ellipse 1 copy 2" class="cls-2" d="M46.6,19.758C53.458,12.9,61.989,9.291,69.518,9.325c0.034,7.53-3.576,16.061-10.433,22.917S43.7,42.709,36.169,42.675C36.135,35.145,39.746,26.614,46.6,19.758Zm-22.187,0C17.559,12.9,9.028,9.291,1.5,9.325c-0.034,7.53,3.576,16.061,10.433,22.917S27.318,42.709,34.847,42.675C34.881,35.145,31.271,26.614,24.415,19.758Z"/>
</svg>
